# xmcd
#
# Track frame offsets:
#	150
#	17974
#	31437
#	51538
#	80271
#
# Disc length: 1731 seconds
#
# Revision: 0
# Processed by: cddbd v1.5.2PL0 Copyright (c) Steve Scherf et al.
# Submitted via: EZCDAudioConverter 1.3.4.1
#
DISCID=3b06c105
DTITLE=Young Love - Discotech
DYEAR=1900
DGENRE=
TTITLE0=Discotech
TTITLE1=Tragedy
TTITLE2=Discotech [Lindbergh Palace Radio Edit]
TTITLE3=Tragedy [Lindbergh Palace Remix]
TTITLE4=Discotech Video
EXTD=
EXTT0=
EXTT1=
EXTT2=
EXTT3=
EXTT4=
PLAYORDER=
